# xmcd
#
# Track frame offsets: 
#        150
#        12542
#        25892
#        37535
#        49972
#        62727
#        75352
#        88047
#        100295
#        111925
#        123165
#        134800
#        145027
#        155750
#        166835
#        179197
#
# Disc length: 2534 seconds
#
# Revision: 0
# Processed by: cddbd v1.5.2PL0 Copyright (c) Steve Scherf et al.
# Submitted via: ExactAudioCopy v0.95b3
#
DISCID=d709e410
DTITLE=Granpa Jones and the Brown's Ferry Four - 16 Sacred Gospel Song
DTITLE=s
DYEAR=2003
DGENRE=Bluegrass
TTITLE0=Come And Dine
TTITLE1=Dark As A Dungeon
TTITLE2=Our Fathers Had Religion
TTITLE3=Jonah And The Whale
TTITLE4=Light In His Sould
TTITLE5=That Depot In The Sky
TTITLE6=Get Back On The Glory Road
TTITLE7=144,000 Were There
TTITLE8=The Arm Of God
TTITLE9=Can't You Hear Him Calling
TTITLE10=Eternity Without Him
TTITLE11=Bound For The Shore
TTITLE12=Heaven Eternal For Me
TTITLE13=What Shall I Do With Jesus
TTITLE14=Prais God!  He Loves Everybody
TTITLE15=You Must Be Born Again
EXTD=
EXTT0=
EXTT1=
EXTT2=
EXTT3=
EXTT4=
EXTT5=
EXTT6=
EXTT7=
EXTT8=
EXTT9=
EXTT10=
EXTT11=
EXTT12=
EXTT13=
EXTT14=
EXTT15=
PLAYORDER=
